  0
SECTION
  2
HEADER
  9
$ACADVER
  1
AC1014
  9
$HANDSEED
  5
FFFF
  9
$INSUNITS
 70
     4
  9
$MEASUREMENT
 70
     1
  0
ENDSEC
  0
SECTION
  2
TABLES
  0
TABLE
  2
VPORT
  5
8
330
0
100
AcDbSymbolTable
 70
     4
  0
VPORT
  5
2E
330
8
100
AcDbSymbolTableRecord
100
AcDbViewportTableRecord
  2
*ACTIVE
 70
     0
 10
0.0
 20
0.0
 11
1.0
 21
1.0
 12
210.0
 22
148.5
 13
0.0
 23
0.0
 14
10.0
 24
10.0
 15
10.0
 25
10.0
 16
0.0
 26
0.0
 36
1.0
 17
0.0
 27
0.0
 37
0.0
 40
341.0
 41
1.24
 42
50.0
 43
0.0
 44
0.0
 50
0.0
 51
0.0
 71
     0
 72
   100
 73
     1
 74
     3
 75
     0
 76
     0
 77
     0
 78
     0
  0
ENDTAB
  0
TABLE
  2
LTYPE
  5
5
330
0
100
AcDbSymbolTable
 70
     1
  0
LTYPE
  5
14
330
5
100
AcDbSymbolTableRecord
100
AcDbLinetypeTableRecord
  2
BYBLOCK
 70
     0
  3

 72
    65
 73
     0
 40
0.0
  0
LTYPE
  5
15
330
5
100
AcDbSymbolTableRecord
100
AcDbLinetypeTableRecord
  2
BYLAYER
 70
     0
  3

 72
    65
 73
     0
 40
0.0
  0
LTYPE
  5
16
330
5
100
AcDbSymbolTableRecord
100
AcDbLinetypeTableRecord
  2
CONTINUOUS
 70
     0
  3
Solid line
 72
    65
 73
     0
 40
0.0
  0
ENDTAB
  0
TABLE
  2
LAYER
  5
2
100
AcDbSymbolTable
 70
1
  0
LAYER
  5
50
100
AcDbSymbolTableRecord
100
AcDbLayerTableRecord
  2
0
 70
0
  6
CONTINUOUS
  0
ENDTAB
  0
TABLE
  2
STYLE
  5
3
330
0
100
AcDbSymbolTable
 70
     1
  0
STYLE
  5
11
330
3
100
AcDbSymbolTableRecord
100
AcDbTextStyleTableRecord
  2
STANDARD
 70
     0
 40
0.0
 41
1.0
 50
0.0
 71
     0
 42
2.5
  3
txt
  4

  0
ENDTAB
  0
TABLE
  2
VIEW
  5
6
330
0
100
AcDbSymbolTable
 70
     0
  0
ENDTAB
  0
TABLE
  2
UCS
  5
7
330
0
100
AcDbSymbolTable
 70
     0
  0
ENDTAB
  0
TABLE
  2
APPID
  5
9
330
0
100
AcDbSymbolTable
 70
     2
  0
APPID
  5
12
330
9
100
AcDbSymbolTableRecord
100
AcDbRegAppTableRecord
  2
ACAD
 70
     0
  0
ENDTAB
  0
TABLE
  2
DIMSTYLE
  5
A
330
0
100
AcDbSymbolTable
 70
     1
  0
DIMSTYLE
105
27
330
A
100
AcDbSymbolTableRecord
100
AcDbDimStyleTableRecord
  2
ISO-25
 70
     0
  3

  4

  5

  6

  7

 40
1.0
 41
2.5
 42
0.625
 43
3.75
 44
1.25
 45
0.0
 46
0.0
 47
0.0
 48
0.0
140
2.5
141
2.5
142
0.0
143
0.03937007874016
144
1.0
145
0.0
146
1.0
147
0.625
 71
     0
 72
     0
 73
     0
 74
     0
 75
     0
 76
     0
 77
     1
 78
     8
170
     0
171
     3
172
     1
173
     0
174
     0
175
     0
176
     0
177
     0
178
     0
270
     2
271
     2
272
     2
273
     2
274
     3
340
11
275
     0
280
     0
281
     0
282
     0
283
     0
284
     8
285
     0
286
     0
287
     3
288
     0
  0
ENDTAB
  0
TABLE
  2
BLOCK_RECORD
  5
1
330
0
100
AcDbSymbolTable
 70
     1
  0
BLOCK_RECORD
  5
1F
330
1
100
AcDbSymbolTableRecord
100
AcDbBlockTableRecord
  2
*MODEL_SPACE
  0
BLOCK_RECORD
  5
1B
330
1
100
AcDbSymbolTableRecord
100
AcDbBlockTableRecord
  2
*PAPER_SPACE
  0
ENDTAB
  0
ENDSEC
  0
SECTION
  2
BLOCKS
  0
BLOCK
  5
20
330
1F
100
AcDbEntity
  8
0
100
AcDbBlockBegin
  2
*MODEL_SPACE
 70
     0
 10
0.0
 20
0.0
 30
0.0
  3
*MODEL_SPACE
  1

  0
ENDBLK
  5
21
330
1F
100
AcDbEntity
  8
0
100
AcDbBlockEnd
  0
BLOCK
  5
1C
330
1B
100
AcDbEntity
 67
     1
  8
0
100
AcDbBlockBegin
  2
*PAPER_SPACE
  1

  0
ENDBLK
  5
1D
330
1B
100
AcDbEntity
 67
     1
  8
0
100
AcDbBlockEnd
  0
ENDSEC
  0
SECTION
  2
ENTITIES
  0
LWPOLYLINE
  5
100
100
AcDbEntity
  8
0
 62
7
100
AcDbPolyline
 90
20
 70
1
 10
295.761000
 20
1008.680000
 30
0.0
 10
311.521000
 20
1008.680000
 30
0.0
 10
311.521000
 20
1003.680000
 30
0.0
 10
327.282000
 20
1003.680000
 30
0.0
 10
327.282000
 20
1008.680000
 30
0.0
 10
343.043000
 20
1008.680000
 30
0.0
 10
343.043000
 20
1003.680000
 30
0.0
 10
363.803000
 20
1003.680000
 30
0.0
 10
363.803000
 20
1011.846000
 30
0.0
 10
358.803000
 20
1011.846000
 30
0.0
 10
358.803000
 20
1020.013000
 30
0.0
 10
363.803000
 20
1020.013000
 30
0.0
 10
363.803000
 20
1028.180000
 30
0.0
 10
275.000000
 20
1028.180000
 30
0.0
 10
275.000000
 20
1020.013000
 30
0.0
 10
280.000000
 20
1020.013000
 30
0.0
 10
280.000000
 20
1011.846000
 30
0.0
 10
275.000000
 20
1011.846000
 30
0.0
 10
275.000000
 20
1003.680000
 30
0.0
 10
295.761000
 20
1003.680000
 30
0.0
  0
LWPOLYLINE
  5
101
100
AcDbEntity
  8
0
 62
7
100
AcDbPolyline
 90
32
 70
1
 10
318.231000
 20
1010.295000
 30
0.0
 10
317.106000
 20
1010.636000
 30
0.0
 10
316.068000
 20
1011.191000
 30
0.0
 10
315.159000
 20
1011.937000
 30
0.0
 10
314.413000
 20
1012.846000
 30
0.0
 10
313.858000
 20
1013.884000
 30
0.0
 10
313.517000
 20
1015.009000
 30
0.0
 10
313.402000
 20
1016.180000
 30
0.0
 10
313.517000
 20
1017.350000
 30
0.0
 10
313.858000
 20
1018.476000
 30
0.0
 10
314.413000
 20
1019.513000
 30
0.0
 10
315.159000
 20
1020.422000
 30
0.0
 10
316.068000
 20
1021.169000
 30
0.0
 10
317.106000
 20
1021.723000
 30
0.0
 10
318.231000
 20
1022.064000
 30
0.0
 10
319.402000
 20
1022.180000
 30
0.0
 10
320.572000
 20
1022.064000
 30
0.0
 10
321.698000
 20
1021.723000
 30
0.0
 10
322.735000
 20
1021.169000
 30
0.0
 10
323.644000
 20
1020.422000
 30
0.0
 10
324.391000
 20
1019.513000
 30
0.0
 10
324.945000
 20
1018.476000
 30
0.0
 10
325.286000
 20
1017.350000
 30
0.0
 10
325.402000
 20
1016.180000
 30
0.0
 10
325.286000
 20
1015.009000
 30
0.0
 10
324.945000
 20
1013.884000
 30
0.0
 10
324.391000
 20
1012.846000
 30
0.0
 10
323.644000
 20
1011.937000
 30
0.0
 10
322.735000
 20
1011.191000
 30
0.0
 10
321.698000
 20
1010.636000
 30
0.0
 10
320.572000
 20
1010.295000
 30
0.0
 10
319.402000
 20
1010.180000
 30
0.0
  0
LWPOLYLINE
  5
102
100
AcDbEntity
  8
0
 62
7
100
AcDbPolyline
 90
24
 70
1
 10
292.454000
 20
969.190000
 30
0.0
 10
309.908000
 20
969.190000
 30
0.0
 10
309.908000
 20
964.180000
 30
0.0
 10
327.363000
 20
964.180000
 30
0.0
 10
327.363000
 20
969.190000
 30
0.0
 10
344.817000
 20
969.190000
 30
0.0
 10
344.817000
 20
964.180000
 30
0.0
 10
362.271000
 20
964.180000
 30
0.0
 10
362.271000
 20
969.190000
 30
0.0
 10
379.726000
 20
969.190000
 30
0.0
 10
379.726000
 20
964.180000
 30
0.0
 10
397.180000
 20
964.180000
 30
0.0
 10
397.180000
 20
972.346000
 30
0.0
 10
392.170000
 20
972.346000
 30
0.0
 10
392.170000
 20
980.513000
 30
0.0
 10
397.180000
 20
980.513000
 30
0.0
 10
397.180000
 20
988.680000
 30
0.0
 10
275.000000
 20
988.680000
 30
0.0
 10
275.000000
 20
980.513000
 30
0.0
 10
270.000000
 20
980.513000
 30
0.0
 10
270.000000
 20
972.346000
 30
0.0
 10
275.000000
 20
972.346000
 30
0.0
 10
275.000000
 20
964.180000
 30
0.0
 10
292.454000
 20
964.180000
 30
0.0
  0
LWPOLYLINE
  5
103
100
AcDbEntity
  8
0
 62
7
100
AcDbPolyline
 90
24
 70
1
 10
429.634000
 20
969.190000
 30
0.0
 10
447.088000
 20
969.190000
 30
0.0
 10
447.088000
 20
964.180000
 30
0.0
 10
464.543000
 20
964.180000
 30
0.0
 10
464.543000
 20
969.190000
 30
0.0
 10
481.997000
 20
969.190000
 30
0.0
 10
481.997000
 20
964.180000
 30
0.0
 10
499.451000
 20
964.180000
 30
0.0
 10
499.451000
 20
969.190000
 30
0.0
 10
516.905000
 20
969.190000
 30
0.0
 10
516.905000
 20
964.180000
 30
0.0
 10
534.360000
 20
964.180000
 30
0.0
 10
534.360000
 20
972.346000
 30
0.0
 10
529.350000
 20
972.346000
 30
0.0
 10
529.350000
 20
980.513000
 30
0.0
 10
534.360000
 20
980.513000
 30
0.0
 10
534.360000
 20
988.680000
 30
0.0
 10
412.180000
 20
988.680000
 30
0.0
 10
412.180000
 20
980.513000
 30
0.0
 10
407.180000
 20
980.513000
 30
0.0
 10
407.180000
 20
972.346000
 30
0.0
 10
412.180000
 20
972.346000
 30
0.0
 10
412.180000
 20
964.180000
 30
0.0
 10
429.634000
 20
964.180000
 30
0.0
  0
LWPOLYLINE
  5
104
100
AcDbEntity
  8
0
 62
7
100
AcDbPolyline
 90
44
 70
1
 10
306.521000
 20
827.000000
 30
0.0
 10
322.282000
 20
827.000000
 30
0.0
 10
322.282000
 20
822.000000
 30
0.0
 10
338.043000
 20
822.000000
 30
0.0
 10
338.043000
 20
827.000000
 30
0.0
 10
353.803000
 20
827.000000
 30
0.0
 10
353.803000
 20
844.454000
 30
0.0
 10
358.803000
 20
844.454000
 30
0.0
 10
358.803000
 20
861.908000
 30
0.0
 10
353.803000
 20
861.908000
 30
0.0
 10
353.803000
 20
879.363000
 30
0.0
 10
358.803000
 20
879.363000
 30
0.0
 10
358.803000
 20
896.817000
 30
0.0
 10
353.803000
 20
896.817000
 30
0.0
 10
353.803000
 20
914.271000
 30
0.0
 10
358.803000
 20
914.271000
 30
0.0
 10
358.803000
 20
931.726000
 30
0.0
 10
353.803000
 20
931.726000
 30
0.0
 10
353.803000
 20
949.180000
 30
0.0
 10
338.043000
 20
949.180000
 30
0.0
 10
338.043000
 20
944.170000
 30
0.0
 10
322.282000
 20
944.170000
 30
0.0
 10
322.282000
 20
949.180000
 30
0.0
 10
306.521000
 20
949.180000
 30
0.0
 10
306.521000
 20
944.170000
 30
0.0
 10
290.761000
 20
944.170000
 30
0.0
 10
290.761000
 20
949.180000
 30
0.0
 10
275.000000
 20
949.180000
 30
0.0
 10
275.000000
 20
931.726000
 30
0.0
 10
270.000000
 20
931.726000
 30
0.0
 10
270.000000
 20
914.271000
 30
0.0
 10
275.000000
 20
914.271000
 30
0.0
 10
275.000000
 20
896.817000
 30
0.0
 10
270.000000
 20
896.817000
 30
0.0
 10
270.000000
 20
879.363000
 30
0.0
 10
275.000000
 20
879.363000
 30
0.0
 10
275.000000
 20
861.908000
 30
0.0
 10
270.000000
 20
861.908000
 30
0.0
 10
270.000000
 20
844.454000
 30
0.0
 10
275.000000
 20
844.454000
 30
0.0
 10
275.000000
 20
827.000000
 30
0.0
 10
290.761000
 20
827.000000
 30
0.0
 10
290.761000
 20
822.000000
 30
0.0
 10
306.521000
 20
822.000000
 30
0.0
  0
LWPOLYLINE
  5
105
100
AcDbEntity
  8
0
 62
7
100
AcDbPolyline
 90
20
 70
1
 10
400.325000
 20
832.010000
 30
0.0
 10
416.085000
 20
832.010000
 30
0.0
 10
416.085000
 20
827.000000
 30
0.0
 10
431.846000
 20
827.000000
 30
0.0
 10
431.846000
 20
832.010000
 30
0.0
 10
447.607000
 20
832.010000
 30
0.0
 10
447.607000
 20
835.167000
 30
0.0
 10
452.607000
 20
835.167000
 30
0.0
 10
452.607000
 20
843.333000
 30
0.0
 10
447.607000
 20
843.333000
 30
0.0
 10
447.607000
 20
851.500000
 30
0.0
 10
368.803000
 20
851.500000
 30
0.0
 10
368.803000
 20
843.333000
 30
0.0
 10
363.803000
 20
843.333000
 30
0.0
 10
363.803000
 20
835.167000
 30
0.0
 10
368.803000
 20
835.167000
 30
0.0
 10
368.803000
 20
832.010000
 30
0.0
 10
384.564000
 20
832.010000
 30
0.0
 10
384.564000
 20
827.000000
 30
0.0
 10
400.325000
 20
827.000000
 30
0.0
  0
LWPOLYLINE
  5
106
100
AcDbEntity
  8
0
 62
7
100
AcDbPolyline
 90
84
 70
1
 10
34.422900
 20
678.667300
 30
0.0
 10
53.305800
 20
678.667300
 30
0.0
 10
53.305800
 20
673.657320
 30
0.0
 10
72.188600
 20
673.657320
 30
0.0
 10
72.188600
 20
678.667300
 30
0.0
 10
91.071400
 20
678.667300
 30
0.0
 10
91.071400
 20
673.657320
 30
0.0
 10
109.954000
 20
673.657320
 30
0.0
 10
109.954000
 20
678.667300
 30
0.0
 10
123.827000
 20
678.667300
 30
0.0
 10
123.827000
 20
682.093630
 30
0.0
 10
128.837000
 20
682.093630
 30
0.0
 10
128.837000
 20
690.530000
 30
0.0
 10
123.827000
 20
690.530000
 30
0.0
 10
123.827000
 20
698.966300
 30
0.0
 10
128.837000
 20
698.966300
 30
0.0
 10
128.837000
 20
703.976300
 30
0.0
 10
146.410000
 20
703.976300
 30
0.0
 10
146.410000
 20
698.966300
 30
0.0
 10
163.983000
 20
698.966300
 30
0.0
 10
163.983000
 20
703.976300
 30
0.0
 10
181.556000
 20
703.976300
 30
0.0
 10
181.556000
 20
698.966300
 30
0.0
 10
186.566000
 20
698.966300
 30
0.0
 10
186.566000
 20
690.530000
 30
0.0
 10
181.556000
 20
690.530000
 30
0.0
 10
181.556000
 20
682.093630
 30
0.0
 10
186.566000
 20
682.093630
 30
0.0
 10
186.566000
 20
678.667300
 30
0.0
 10
204.923000
 20
678.667300
 30
0.0
 10
204.923000
 20
673.657320
 30
0.0
 10
228.290000
 20
673.657320
 30
0.0
 10
228.290000
 20
678.667300
 30
0.0
 10
246.647000
 20
678.667300
 30
0.0
 10
246.647000
 20
693.618000
 30
0.0
 10
251.657000
 20
693.618000
 30
0.0
 10
251.657000
 20
713.578600
 30
0.0
 10
246.647000
 20
713.578600
 30
0.0
 10
246.647000
 20
733.539300
 30
0.0
 10
251.657000
 20
733.539300
 30
0.0
 10
251.657000
 20
753.500000
 30
0.0
 10
246.647000
 20
753.500000
 30
0.0
 10
246.647000
 20
768.450700
 30
0.0
 10
228.290000
 20
768.450700
 30
0.0
 10
228.290000
 20
773.460700
 30
0.0
 10
204.923000
 20
773.460700
 30
0.0
 10
204.923000
 20
768.450700
 30
0.0
 10
186.566000
 20
768.450700
 30
0.0
 10
186.566000
 20
765.024300
 30
0.0
 10
181.556000
 20
765.024300
 30
0.0
 10
181.556000
 20
756.588000
 30
0.0
 10
186.566000
 20
756.588000
 30
0.0
 10
186.566000
 20
748.151700
 30
0.0
 10
181.556000
 20
748.151700
 30
0.0
 10
181.556000
 20
743.141700
 30
0.0
 10
163.983000
 20
743.141700
 30
0.0
 10
163.983000
 20
748.151700
 30
0.0
 10
146.410000
 20
748.151700
 30
0.0
 10
146.410000
 20
743.141700
 30
0.0
 10
128.837000
 20
743.141700
 30
0.0
 10
128.837000
 20
748.151700
 30
0.0
 10
123.827000
 20
748.151700
 30
0.0
 10
123.827000
 20
756.588000
 30
0.0
 10
128.837000
 20
756.588000
 30
0.0
 10
128.837000
 20
765.024300
 30
0.0
 10
123.827000
 20
765.024300
 30
0.0
 10
123.827000
 20
768.450700
 30
0.0
 10
109.954000
 20
768.450700
 30
0.0
 10
109.954000
 20
773.460700
 30
0.0
 10
91.071400
 20
773.460700
 30
0.0
 10
91.071400
 20
768.450700
 30
0.0
 10
72.188600
 20
768.450700
 30
0.0
 10
72.188600
 20
773.460700
 30
0.0
 10
53.305800
 20
773.460700
 30
0.0
 10
53.305800
 20
768.450700
 30
0.0
 10
34.422900
 20
768.450700
 30
0.0
 10
34.422900
 20
773.460700
 30
0.0
 10
15.540100
 20
773.460700
 30
0.0
 10
15.540100
 20
768.450700
 30
0.0
 10
-3.342680
 20
768.450700
 30
0.0
 10
-3.342680
 20
678.667300
 30
0.0
 10
15.540100
 20
678.667300
 30
0.0
 10
15.540100
 20
673.657320
 30
0.0
 10
34.422900
 20
673.657320
 30
0.0
  0
LWPOLYLINE
  5
107
100
AcDbEntity
  8
0
 62
7
100
AcDbPolyline
 90
12
 70
1
 10
403.837000
 20
698.966300
 30
0.0
 10
456.556000
 20
698.966300
 30
0.0
 10
456.556000
 20
673.657320
 30
0.0
 10
526.657000
 20
673.657320
 30
0.0
 10
526.657000
 20
773.460700
 30
0.0
 10
456.556000
 20
773.460700
 30
0.0
 10
456.556000
 20
748.151700
 30
0.0
 10
403.837000
 20
748.151700
 30
0.0
 10
403.837000
 20
773.460700
 30
0.0
 10
271.657000
 20
773.460700
 30
0.0
 10
271.657000
 20
673.657320
 30
0.0
 10
403.837000
 20
673.657320
 30
0.0
  0
LWPOLYLINE
  5
108
100
AcDbEntity
  8
0
 62
7
100
AcDbPolyline
 90
20
 70
1
 10
170.616000
 20
582.000000
 30
0.0
 10
179.052000
 20
582.000000
 30
0.0
 10
179.052000
 20
577.000000
 30
0.0
 10
187.489000
 20
577.000000
 30
0.0
 10
187.489000
 20
582.010000
 30
0.0
 10
187.479000
 20
582.010000
 30
0.0
 10
187.479000
 20
590.343300
 30
0.0
 10
192.489000
 20
590.343300
 30
0.0
 10
192.489000
 20
598.666700
 30
0.0
 10
187.479000
 20
598.666700
 30
0.0
 10
187.479000
 20
607.000000
 30
0.0
 10
167.190000
 20
607.000000
 30
0.0
 10
167.190000
 20
598.666700
 30
0.0
 10
162.180000
 20
598.666700
 30
0.0
 10
162.180000
 20
590.343300
 30
0.0
 10
167.190000
 20
590.343300
 30
0.0
 10
167.190000
 20
582.010000
 30
0.0
 10
167.180000
 20
582.010000
 30
0.0
 10
167.180000
 20
577.000000
 30
0.0
 10
170.616000
 20
577.000000
 30
0.0
  0
LWPOLYLINE
  5
109
100
AcDbEntity
  8
0
 62
7
100
AcDbPolyline
 90
20
 70
1
 10
18.882800
 20
582.000000
 30
0.0
 10
37.765600
 20
582.000000
 30
0.0
 10
37.765600
 20
577.000000
 30
0.0
 10
56.648500
 20
577.000000
 30
0.0
 10
56.648500
 20
582.000000
 30
0.0
 10
75.531300
 20
582.000000
 30
0.0
 10
75.531300
 20
577.000000
 30
0.0
 10
94.414100
 20
577.000000
 30
0.0
 10
94.414100
 20
582.000000
 30
0.0
 10
113.297000
 20
582.000000
 30
0.0
 10
113.297000
 20
577.000000
 30
0.0
 10
132.180000
 20
577.000000
 30
0.0
 10
132.180000
 20
590.333300
 30
0.0
 10
127.170000
 20
590.333300
 30
0.0
 10
127.170000
 20
598.676700
 30
0.0
 10
132.180000
 20
598.676700
 30
0.0
 10
132.180000
 20
607.000000
 30
0.0
 10
0.000000
 20
607.000000
 30
0.0
 10
0.000000
 20
577.000000
 30
0.0
 10
18.882800
 20
577.000000
 30
0.0
  0
LWPOLYLINE
  5
10a
100
AcDbEntity
  8
0
 62
7
100
AcDbPolyline
 90
20
 70
1
 10
170.616000
 20
537.000000
 30
0.0
 10
179.052000
 20
537.000000
 30
0.0
 10
179.052000
 20
532.000000
 30
0.0
 10
182.489000
 20
532.000000
 30
0.0
 10
182.489000
 20
537.010000
 30
0.0
 10
182.479000
 20
537.010000
 30
0.0
 10
182.479000
 20
545.343000
 30
0.0
 10
187.489000
 20
545.343000
 30
0.0
 10
187.489000
 20
553.667000
 30
0.0
 10
182.479000
 20
553.667000
 30
0.0
 10
182.479000
 20
562.000000
 30
0.0
 10
162.190000
 20
562.000000
 30
0.0
 10
162.190000
 20
553.667000
 30
0.0
 10
157.180000
 20
553.667000
 30
0.0
 10
157.180000
 20
545.343000
 30
0.0
 10
162.190000
 20
545.343000
 30
0.0
 10
162.190000
 20
537.010000
 30
0.0
 10
162.180000
 20
537.010000
 30
0.0
 10
162.180000
 20
532.000000
 30
0.0
 10
170.616000
 20
532.000000
 30
0.0
  0
LWPOLYLINE
  5
10b
100
AcDbEntity
  8
0
 62
7
100
AcDbPolyline
 90
20
 70
1
 10
17.573000
 20
537.000000
 30
0.0
 10
35.146100
 20
537.000000
 30
0.0
 10
35.146100
 20
532.000000
 30
0.0
 10
52.719100
 20
532.000000
 30
0.0
 10
52.719100
 20
537.000000
 30
0.0
 10
57.719100
 20
537.000000
 30
0.0
 10
57.719100
 20
545.333000
 30
0.0
 10
52.709100
 20
545.333000
 30
0.0
 10
52.709100
 20
553.677000
 30
0.0
 10
57.719100
 20
553.677000
 30
0.0
 10
57.719100
 20
562.000000
 30
0.0
 10
-5.000000
 20
562.000000
 30
0.0
 10
-5.000000
 20
553.677000
 30
0.0
 10
0.009995
 20
553.677000
 30
0.0
 10
0.009995
 20
545.333000
 30
0.0
 10
-5.000000
 20
545.333000
 30
0.0
 10
-5.000000
 20
537.000000
 30
0.0
 10
0.000000
 20
537.000000
 30
0.0
 10
0.000000
 20
532.000000
 30
0.0
 10
17.573000
 20
532.000000
 30
0.0
  0
LWPOLYLINE
  5
10c
100
AcDbEntity
  8
0
 62
7
100
AcDbPolyline
 90
24
 70
1
 10
182.140000
 20
492.000000
 30
0.0
 10
202.101000
 20
492.000000
 30
0.0
 10
202.101000
 20
487.000000
 30
0.0
 10
222.062000
 20
487.000000
 30
0.0
 10
222.062000
 20
492.000000
 30
0.0
 10
242.022000
 20
492.000000
 30
0.0
 10
242.022000
 20
487.000000
 30
0.0
 10
256.983000
 20
487.000000
 30
0.0
 10
256.983000
 20
492.010000
 30
0.0
 10
256.973000
 20
492.010000
 30
0.0
 10
256.973000
 20
500.343000
 30
0.0
 10
261.983000
 20
500.343000
 30
0.0
 10
261.983000
 20
508.667000
 30
0.0
 10
256.973000
 20
508.667000
 30
0.0
 10
256.973000
 20
517.000000
 30
0.0
 10
167.190000
 20
517.000000
 30
0.0
 10
167.190000
 20
508.667000
 30
0.0
 10
162.180000
 20
508.667000
 30
0.0
 10
162.180000
 20
500.343000
 30
0.0
 10
167.190000
 20
500.343000
 30
0.0
 10
167.190000
 20
492.010000
 30
0.0
 10
167.180000
 20
492.010000
 30
0.0
 10
167.180000
 20
487.000000
 30
0.0
 10
182.140000
 20
487.000000
 30
0.0
  0
LWPOLYLINE
  5
10d
100
AcDbEntity
  8
0
 62
7
100
AcDbPolyline
 90
16
 70
1
 10
23.367000
 20
492.000000
 30
0.0
 10
46.734100
 20
492.000000
 30
0.0
 10
46.734100
 20
487.000000
 30
0.0
 10
70.101100
 20
487.000000
 30
0.0
 10
70.101100
 20
500.333000
 30
0.0
 10
65.091100
 20
500.333000
 30
0.0
 10
65.091100
 20
508.677000
 30
0.0
 10
70.101100
 20
508.677000
 30
0.0
 10
70.101100
 20
517.000000
 30
0.0
 10
0.000000
 20
517.000000
 30
0.0
 10
0.000000
 20
508.677000
 30
0.0
 10
5.009990
 20
508.677000
 30
0.0
 10
5.009990
 20
500.333000
 30
0.0
 10
0.000000
 20
500.333000
 30
0.0
 10
0.000000
 20
487.000000
 30
0.0
 10
23.367000
 20
487.000000
 30
0.0
  0
LWPOLYLINE
  5
10e
100
AcDbEntity
  8
0
 62
7
100
AcDbPolyline
 90
20
 70
1
 10
170.616000
 20
447.000000
 30
0.0
 10
179.052000
 20
447.000000
 30
0.0
 10
179.052000
 20
442.000000
 30
0.0
 10
187.489000
 20
442.000000
 30
0.0
 10
187.489000
 20
447.010000
 30
0.0
 10
187.479000
 20
447.010000
 30
0.0
 10
187.479000
 20
455.343000
 30
0.0
 10
192.489000
 20
455.343000
 30
0.0
 10
192.489000
 20
463.667000
 30
0.0
 10
187.479000
 20
463.667000
 30
0.0
 10
187.479000
 20
472.000000
 30
0.0
 10
167.190000
 20
472.000000
 30
0.0
 10
167.190000
 20
463.667000
 30
0.0
 10
162.180000
 20
463.667000
 30
0.0
 10
162.180000
 20
455.343000
 30
0.0
 10
167.190000
 20
455.343000
 30
0.0
 10
167.190000
 20
447.010000
 30
0.0
 10
167.180000
 20
447.010000
 30
0.0
 10
167.180000
 20
442.000000
 30
0.0
 10
170.616000
 20
442.000000
 30
0.0
  0
LWPOLYLINE
  5
10f
100
AcDbEntity
  8
0
 62
7
100
AcDbPolyline
 90
16
 70
1
 10
23.367000
 20
447.000000
 30
0.0
 10
46.734100
 20
447.000000
 30
0.0
 10
46.734100
 20
442.000000
 30
0.0
 10
70.101100
 20
442.000000
 30
0.0
 10
70.101100
 20
455.333000
 30
0.0
 10
65.091100
 20
455.333000
 30
0.0
 10
65.091100
 20
463.677000
 30
0.0
 10
70.101100
 20
463.677000
 30
0.0
 10
70.101100
 20
472.000000
 30
0.0
 10
0.000000
 20
472.000000
 30
0.0
 10
0.000000
 20
463.677000
 30
0.0
 10
5.009990
 20
463.677000
 30
0.0
 10
5.009990
 20
455.333000
 30
0.0
 10
0.000000
 20
455.333000
 30
0.0
 10
0.000000
 20
442.000000
 30
0.0
 10
23.367000
 20
442.000000
 30
0.0
  0
LWPOLYLINE
  5
110
100
AcDbEntity
  8
0
 62
7
100
AcDbPolyline
 90
20
 70
1
 10
17.573000
 20
402.000000
 30
0.0
 10
35.146100
 20
402.000000
 30
0.0
 10
35.146100
 20
397.000000
 30
0.0
 10
52.719100
 20
397.000000
 30
0.0
 10
52.719100
 20
402.000000
 30
0.0
 10
57.719100
 20
402.000000
 30
0.0
 10
57.719100
 20
410.333000
 30
0.0
 10
52.709100
 20
410.333000
 30
0.0
 10
52.709100
 20
418.677000
 30
0.0
 10
57.719100
 20
418.677000
 30
0.0
 10
57.719100
 20
427.000000
 30
0.0
 10
-5.000000
 20
427.000000
 30
0.0
 10
-5.000000
 20
418.677000
 30
0.0
 10
0.009995
 20
418.677000
 30
0.0
 10
0.009995
 20
410.333000
 30
0.0
 10
-5.000000
 20
410.333000
 30
0.0
 10
-5.000000
 20
402.000000
 30
0.0
 10
0.000000
 20
402.000000
 30
0.0
 10
0.000000
 20
397.000000
 30
0.0
 10
17.573000
 20
397.000000
 30
0.0
  0
LWPOLYLINE
  5
111
100
AcDbEntity
  8
0
 62
7
100
AcDbPolyline
 90
20
 70
1
 10
170.616000
 20
402.000000
 30
0.0
 10
179.052000
 20
402.000000
 30
0.0
 10
179.052000
 20
397.000000
 30
0.0
 10
182.489000
 20
397.000000
 30
0.0
 10
182.489000
 20
402.010000
 30
0.0
 10
182.479000
 20
402.010000
 30
0.0
 10
182.479000
 20
410.343000
 30
0.0
 10
187.489000
 20
410.343000
 30
0.0
 10
187.489000
 20
418.667000
 30
0.0
 10
182.479000
 20
418.667000
 30
0.0
 10
182.479000
 20
427.000000
 30
0.0
 10
162.190000
 20
427.000000
 30
0.0
 10
162.190000
 20
418.667000
 30
0.0
 10
157.180000
 20
418.667000
 30
0.0
 10
157.180000
 20
410.343000
 30
0.0
 10
162.190000
 20
410.343000
 30
0.0
 10
162.190000
 20
402.010000
 30
0.0
 10
162.180000
 20
402.010000
 30
0.0
 10
162.180000
 20
397.000000
 30
0.0
 10
170.616000
 20
397.000000
 30
0.0
  0
LWPOLYLINE
  5
112
100
AcDbEntity
  8
0
 62
7
100
AcDbPolyline
 90
20
 70
1
 10
18.882800
 20
357.000000
 30
0.0
 10
37.765600
 20
357.000000
 30
0.0
 10
37.765600
 20
352.000000
 30
0.0
 10
56.648500
 20
352.000000
 30
0.0
 10
56.648500
 20
357.000000
 30
0.0
 10
75.531300
 20
357.000000
 30
0.0
 10
75.531300
 20
352.000000
 30
0.0
 10
94.414100
 20
352.000000
 30
0.0
 10
94.414100
 20
357.000000
 30
0.0
 10
113.297000
 20
357.000000
 30
0.0
 10
113.297000
 20
352.000000
 30
0.0
 10
132.180000
 20
352.000000
 30
0.0
 10
132.180000
 20
382.000000
 30
0.0
 10
0.000000
 20
382.000000
 30
0.0
 10
0.000000
 20
373.677000
 30
0.0
 10
5.009990
 20
373.677000
 30
0.0
 10
5.009990
 20
365.333000
 30
0.0
 10
0.000000
 20
365.333000
 30
0.0
 10
0.000000
 20
352.000000
 30
0.0
 10
18.882800
 20
352.000000
 30
0.0
  0
ENDSEC
  0
SECTION
  2
OBJECTS
  0
DICTIONARY
  5
C
330
0
100
AcDbDictionary
  3
ACAD_GROUP
350
D
  3
ACAD_MLINESTYLE
350
17
  0
DICTIONARY
  5
D
330
C
100
AcDbDictionary
  0
DICTIONARY
  5
1A
330
C
100
AcDbDictionary
  0
DICTIONARY
  5
17
330
C
100
AcDbDictionary
  3
STANDARD
350
18
  0
DICTIONARY
  5
19
330
C
100
AcDbDictionary
  0
ENDSEC
  0
EOF
