<?xml version="1.0" standalone="no"?>
<!DOCTYPE svg PUBLIC "-//W3C//DTD SVG 1.1//EN" "http://www.w3.org/Graphics/SVG/1.1/DTD/svg11.dtd">
<svg width="540mm" height="677mm" viewBox="-5 -352 540 677" xmlns="http://www.w3.org/2000/svg" version="1.1">
<title>OpenSCAD Model</title>
<path d="
M 295.761,-331.68 L 311.521,-331.68 L 311.521,-326.68 L 327.282,-326.68 L 327.282,-331.68 L 343.043,-331.68
 L 343.043,-326.68 L 363.803,-326.68 L 363.803,-334.846 L 358.803,-334.846 L 358.803,-343.013 L 363.803,-343.013
 L 363.803,-351.18 L 275,-351.18 L 275,-343.013 L 280,-343.013 L 280,-334.846 L 275,-334.846
 L 275,-326.68 L 295.761,-326.68 z
M 318.231,-333.295 L 317.106,-333.636 L 316.068,-334.191 L 315.159,-334.937 L 314.413,-335.846 L 313.858,-336.884
 L 313.517,-338.009 L 313.402,-339.18 L 313.517,-340.35 L 313.858,-341.476 L 314.413,-342.513 L 315.159,-343.422
 L 316.068,-344.169 L 317.106,-344.723 L 318.231,-345.064 L 319.402,-345.18 L 320.572,-345.064 L 321.698,-344.723
 L 322.735,-344.169 L 323.644,-343.422 L 324.391,-342.513 L 324.945,-341.476 L 325.286,-340.35 L 325.402,-339.18
 L 325.286,-338.009 L 324.945,-336.884 L 324.391,-335.846 L 323.644,-334.937 L 322.735,-334.191 L 321.698,-333.636
 L 320.572,-333.295 L 319.402,-333.18 z
M 292.454,-292.19 L 309.908,-292.19 L 309.908,-287.18 L 327.363,-287.18 L 327.363,-292.19 L 344.817,-292.19
 L 344.817,-287.18 L 362.271,-287.18 L 362.271,-292.19 L 379.726,-292.19 L 379.726,-287.18 L 397.18,-287.18
 L 397.18,-295.346 L 392.17,-295.346 L 392.17,-303.513 L 397.18,-303.513 L 397.18,-311.68 L 275,-311.68
 L 275,-303.513 L 270,-303.513 L 270,-295.346 L 275,-295.346 L 275,-287.18 L 292.454,-287.18
 z
M 429.634,-292.19 L 447.088,-292.19 L 447.088,-287.18 L 464.543,-287.18 L 464.543,-292.19 L 481.997,-292.19
 L 481.997,-287.18 L 499.451,-287.18 L 499.451,-292.19 L 516.905,-292.19 L 516.905,-287.18 L 534.36,-287.18
 L 534.36,-295.346 L 529.35,-295.346 L 529.35,-303.513 L 534.36,-303.513 L 534.36,-311.68 L 412.18,-311.68
 L 412.18,-303.513 L 407.18,-303.513 L 407.18,-295.346 L 412.18,-295.346 L 412.18,-287.18 L 429.634,-287.18
 z
M 306.521,-150 L 322.282,-150 L 322.282,-145 L 338.043,-145 L 338.043,-150 L 353.803,-150
 L 353.803,-167.454 L 358.803,-167.454 L 358.803,-184.908 L 353.803,-184.908 L 353.803,-202.363 L 358.803,-202.363
 L 358.803,-219.817 L 353.803,-219.817 L 353.803,-237.271 L 358.803,-237.271 L 358.803,-254.726 L 353.803,-254.726
 L 353.803,-272.18 L 338.043,-272.18 L 338.043,-267.17 L 322.282,-267.17 L 322.282,-272.18 L 306.521,-272.18
 L 306.521,-267.17 L 290.761,-267.17 L 290.761,-272.18 L 275,-272.18 L 275,-254.726 L 270,-254.726
 L 270,-237.271 L 275,-237.271 L 275,-219.817 L 270,-219.817 L 270,-202.363 L 275,-202.363
 L 275,-184.908 L 270,-184.908 L 270,-167.454 L 275,-167.454 L 275,-150 L 290.761,-150
 L 290.761,-145 L 306.521,-145 z
M 400.325,-155.01 L 416.085,-155.01 L 416.085,-150 L 431.846,-150 L 431.846,-155.01 L 447.607,-155.01
 L 447.607,-158.167 L 452.607,-158.167 L 452.607,-166.333 L 447.607,-166.333 L 447.607,-174.5 L 368.803,-174.5
 L 368.803,-166.333 L 363.803,-166.333 L 363.803,-158.167 L 368.803,-158.167 L 368.803,-155.01 L 384.564,-155.01
 L 384.564,-150 L 400.325,-150 z
M 34.4229,-1.6673 L 53.3058,-1.6673 L 53.3058,3.34268 L 72.1886,3.34268 L 72.1886,-1.6673 L 91.0714,-1.6673
 L 91.0714,3.34268 L 109.954,3.34268 L 109.954,-1.6673 L 123.827,-1.6673 L 123.827,-5.09363 L 128.837,-5.09363
 L 128.837,-13.53 L 123.827,-13.53 L 123.827,-21.9663 L 128.837,-21.9663 L 128.837,-26.9763 L 146.41,-26.9763
 L 146.41,-21.9663 L 163.983,-21.9663 L 163.983,-26.9763 L 181.556,-26.9763 L 181.556,-21.9663 L 186.566,-21.9663
 L 186.566,-13.53 L 181.556,-13.53 L 181.556,-5.09363 L 186.566,-5.09363 L 186.566,-1.6673 L 204.923,-1.6673
 L 204.923,3.34268 L 228.29,3.34268 L 228.29,-1.6673 L 246.647,-1.6673 L 246.647,-16.618 L 251.657,-16.618
 L 251.657,-36.5786 L 246.647,-36.5786 L 246.647,-56.5393 L 251.657,-56.5393 L 251.657,-76.5 L 246.647,-76.5
 L 246.647,-91.4507 L 228.29,-91.4507 L 228.29,-96.4607 L 204.923,-96.4607 L 204.923,-91.4507 L 186.566,-91.4507
 L 186.566,-88.0243 L 181.556,-88.0243 L 181.556,-79.588 L 186.566,-79.588 L 186.566,-71.1517 L 181.556,-71.1517
 L 181.556,-66.1417 L 163.983,-66.1417 L 163.983,-71.1517 L 146.41,-71.1517 L 146.41,-66.1417 L 128.837,-66.1417
 L 128.837,-71.1517 L 123.827,-71.1517 L 123.827,-79.588 L 128.837,-79.588 L 128.837,-88.0243 L 123.827,-88.0243
 L 123.827,-91.4507 L 109.954,-91.4507 L 109.954,-96.4607 L 91.0714,-96.4607 L 91.0714,-91.4507 L 72.1886,-91.4507
 L 72.1886,-96.4607 L 53.3058,-96.4607 L 53.3058,-91.4507 L 34.4229,-91.4507 L 34.4229,-96.4607 L 15.5401,-96.4607
 L 15.5401,-91.4507 L -3.34268,-91.4507 L -3.34268,-1.6673 L 15.5401,-1.6673 L 15.5401,3.34268 L 34.4229,3.34268
 z
M 403.837,-21.9663 L 456.556,-21.9663 L 456.556,3.34268 L 526.657,3.34268 L 526.657,-96.4607 L 456.556,-96.4607
 L 456.556,-71.1517 L 403.837,-71.1517 L 403.837,-96.4607 L 271.657,-96.4607 L 271.657,3.34268 L 403.837,3.34268
 z
M 170.616,95 L 179.052,95 L 179.052,100 L 187.489,100 L 187.489,94.99 L 187.479,94.99
 L 187.479,86.6567 L 192.489,86.6567 L 192.489,78.3333 L 187.479,78.3333 L 187.479,70 L 167.19,70
 L 167.19,78.3333 L 162.18,78.3333 L 162.18,86.6567 L 167.19,86.6567 L 167.19,94.99 L 167.18,94.99
 L 167.18,100 L 170.616,100 z
M 18.8828,95 L 37.7656,95 L 37.7656,100 L 56.6485,100 L 56.6485,95 L 75.5313,95
 L 75.5313,100 L 94.4141,100 L 94.4141,95 L 113.297,95 L 113.297,100 L 132.18,100
 L 132.18,86.6667 L 127.17,86.6667 L 127.17,78.3233 L 132.18,78.3233 L 132.18,70 L 0,70
 L 0,100 L 18.8828,100 z
M 170.616,140 L 179.052,140 L 179.052,145 L 182.489,145 L 182.489,139.99 L 182.479,139.99
 L 182.479,131.657 L 187.489,131.657 L 187.489,123.333 L 182.479,123.333 L 182.479,115 L 162.19,115
 L 162.19,123.333 L 157.18,123.333 L 157.18,131.657 L 162.19,131.657 L 162.19,139.99 L 162.18,139.99
 L 162.18,145 L 170.616,145 z
M 17.573,140 L 35.1461,140 L 35.1461,145 L 52.7191,145 L 52.7191,140 L 57.7191,140
 L 57.7191,131.667 L 52.7091,131.667 L 52.7091,123.323 L 57.7191,123.323 L 57.7191,115 L -5,115
 L -5,123.323 L 0.00999451,123.323 L 0.00999451,131.667 L -5,131.667 L -5,140 L 0,140
 L 0,145 L 17.573,145 z
M 182.14,185 L 202.101,185 L 202.101,190 L 222.062,190 L 222.062,185 L 242.022,185
 L 242.022,190 L 256.983,190 L 256.983,184.99 L 256.973,184.99 L 256.973,176.657 L 261.983,176.657
 L 261.983,168.333 L 256.973,168.333 L 256.973,160 L 167.19,160 L 167.19,168.333 L 162.18,168.333
 L 162.18,176.657 L 167.19,176.657 L 167.19,184.99 L 167.18,184.99 L 167.18,190 L 182.14,190
 z
M 23.367,185 L 46.7341,185 L 46.7341,190 L 70.1011,190 L 70.1011,176.667 L 65.0911,176.667
 L 65.0911,168.323 L 70.1011,168.323 L 70.1011,160 L 0,160 L 0,168.323 L 5.00999,168.323
 L 5.00999,176.667 L 0,176.667 L 0,190 L 23.367,190 z
M 170.616,230 L 179.052,230 L 179.052,235 L 187.489,235 L 187.489,229.99 L 187.479,229.99
 L 187.479,221.657 L 192.489,221.657 L 192.489,213.333 L 187.479,213.333 L 187.479,205 L 167.19,205
 L 167.19,213.333 L 162.18,213.333 L 162.18,221.657 L 167.19,221.657 L 167.19,229.99 L 167.18,229.99
 L 167.18,235 L 170.616,235 z
M 23.367,230 L 46.7341,230 L 46.7341,235 L 70.1011,235 L 70.1011,221.667 L 65.0911,221.667
 L 65.0911,213.323 L 70.1011,213.323 L 70.1011,205 L 0,205 L 0,213.323 L 5.00999,213.323
 L 5.00999,221.667 L 0,221.667 L 0,235 L 23.367,235 z
M 17.573,275 L 35.1461,275 L 35.1461,280 L 52.7191,280 L 52.7191,275 L 57.7191,275
 L 57.7191,266.667 L 52.7091,266.667 L 52.7091,258.323 L 57.7191,258.323 L 57.7191,250 L -5,250
 L -5,258.323 L 0.00999451,258.323 L 0.00999451,266.667 L -5,266.667 L -5,275 L 0,275
 L 0,280 L 17.573,280 z
M 170.616,275 L 179.052,275 L 179.052,280 L 182.489,280 L 182.489,274.99 L 182.479,274.99
 L 182.479,266.657 L 187.489,266.657 L 187.489,258.333 L 182.479,258.333 L 182.479,250 L 162.19,250
 L 162.19,258.333 L 157.18,258.333 L 157.18,266.657 L 162.19,266.657 L 162.19,274.99 L 162.18,274.99
 L 162.18,280 L 170.616,280 z
M 18.8828,320 L 37.7656,320 L 37.7656,325 L 56.6485,325 L 56.6485,320 L 75.5313,320
 L 75.5313,325 L 94.4141,325 L 94.4141,320 L 113.297,320 L 113.297,325 L 132.18,325
 L 132.18,295 L 0,295 L 0,303.323 L 5.00999,303.323 L 5.00999,311.667 L 0,311.667
 L 0,325 L 18.8828,325 z
" stroke="black" fill="lightgray" stroke-width="0.5"/>
</svg>
