<?xml version="1.0" standalone="no"?>
<!DOCTYPE svg PUBLIC "-//W3C//DTD SVG 1.1//EN" "http://www.w3.org/Graphics/SVG/1.1/DTD/svg11.dtd">
<svg width="383mm" height="612mm" viewBox="-7 -306 383 612" xmlns="http://www.w3.org/2000/svg" version="1.1">
<title>OpenSCAD Model</title>
<path d="
M 209.258,-288.112 L 219.517,-288.112 L 219.517,-284.112 L 229.775,-284.112 L 229.775,-288.112 L 240.034,-288.112
 L 240.034,-284.112 L 254.292,-284.112 L 254.292,-291.245 L 250.292,-291.245 L 250.292,-298.378 L 254.292,-298.378
 L 254.292,-305.512 L 195,-305.512 L 195,-298.378 L 199,-298.378 L 199,-291.245 L 195,-291.245
 L 195,-284.112 L 209.258,-284.112 z
M 223.476,-287.627 L 222.35,-287.968 L 221.313,-288.523 L 220.404,-289.269 L 219.657,-290.178 L 219.103,-291.215
 L 218.762,-292.341 L 218.646,-293.512 L 218.762,-294.682 L 219.103,-295.808 L 219.657,-296.845 L 220.404,-297.754
 L 221.313,-298.5 L 222.35,-299.055 L 223.476,-299.396 L 224.646,-299.512 L 225.817,-299.396 L 226.942,-299.055
 L 227.98,-298.5 L 228.889,-297.754 L 229.635,-296.845 L 230.19,-295.808 L 230.531,-294.682 L 230.646,-293.512
 L 230.531,-292.341 L 230.19,-291.215 L 229.635,-290.178 L 228.889,-289.269 L 227.98,-288.523 L 226.942,-287.968
 L 225.817,-287.627 L 224.646,-287.512 z
M 206.816,-251.722 L 218.632,-251.722 L 218.632,-247.712 L 230.448,-247.712 L 230.448,-251.722 L 242.264,-251.722
 L 242.264,-247.712 L 254.08,-247.712 L 254.08,-251.722 L 265.896,-251.722 L 265.896,-247.712 L 277.712,-247.712
 L 277.712,-254.845 L 273.702,-254.845 L 273.702,-261.978 L 277.712,-261.978 L 277.712,-269.112 L 195,-269.112
 L 195,-261.978 L 191,-261.978 L 191,-254.845 L 195,-254.845 L 195,-247.712 L 206.816,-247.712
 z
M 304.528,-251.722 L 316.343,-251.722 L 316.343,-247.712 L 328.159,-247.712 L 328.159,-251.722 L 339.975,-251.722
 L 339.975,-247.712 L 351.791,-247.712 L 351.791,-251.722 L 363.607,-251.722 L 363.607,-247.712 L 375.423,-247.712
 L 375.423,-254.845 L 371.413,-254.845 L 371.413,-261.978 L 375.423,-261.978 L 375.423,-269.112 L 292.712,-269.112
 L 292.712,-261.978 L 288.712,-261.978 L 288.712,-254.845 L 292.712,-254.845 L 292.712,-247.712 L 304.528,-247.712
 z
M 215.517,-150 L 225.775,-150 L 225.775,-146 L 236.034,-146 L 236.034,-150 L 246.292,-150
 L 246.292,-161.816 L 250.292,-161.816 L 250.292,-173.632 L 246.292,-173.632 L 246.292,-185.448 L 250.292,-185.448
 L 250.292,-197.264 L 246.292,-197.264 L 246.292,-209.08 L 250.292,-209.08 L 250.292,-220.896 L 246.292,-220.896
 L 246.292,-232.712 L 236.034,-232.712 L 236.034,-228.702 L 225.775,-228.702 L 225.775,-232.712 L 215.517,-232.712
 L 215.517,-228.702 L 205.258,-228.702 L 205.258,-232.712 L 195,-232.712 L 195,-220.896 L 191,-220.896
 L 191,-209.08 L 195,-209.08 L 195,-197.264 L 191,-197.264 L 191,-185.448 L 195,-185.448
 L 195,-173.632 L 191,-173.632 L 191,-161.816 L 195,-161.816 L 195,-150 L 205.258,-150
 L 205.258,-146 L 215.517,-146 z
M 107.312,-161.421 L 107.932,-161.513 L 108.54,-161.666 L 109.131,-161.877 L 109.698,-162.145 L 110.236,-162.467
 L 110.739,-162.841 L 111.204,-163.262 L 111.625,-163.727 L 111.999,-164.231 L 112.321,-164.768 L 112.589,-165.335
 L 112.801,-165.926 L 112.953,-166.534 L 113.045,-167.155 L 113.076,-167.781 L 113.045,-168.407 L 112.953,-169.028
 L 112.801,-169.636 L 112.589,-170.226 L 112.321,-170.793 L 111.999,-171.331 L 111.625,-171.835 L 111.204,-172.3
 L 110.739,-172.721 L 110.236,-173.094 L 109.698,-173.417 L 109.131,-173.685 L 108.54,-173.896 L 107.932,-174.049
 L 107.312,-174.141 L 106.685,-174.171 L 106.059,-174.141 L 105.439,-174.049 L 104.83,-173.896 L 104.24,-173.685
 L 103.673,-173.417 L 103.135,-173.094 L 102.631,-172.721 L 102.167,-172.3 L 101.745,-171.835 L 101.372,-171.331
 L 101.05,-170.793 L 100.781,-170.226 L 100.57,-169.636 L 100.418,-169.028 L 100.326,-168.407 L 100.295,-167.781
 L 100.326,-167.155 L 100.418,-166.534 L 100.57,-165.926 L 100.781,-165.335 L 101.05,-164.768 L 101.372,-164.231
 L 101.745,-163.727 L 102.167,-163.262 L 102.631,-162.841 L 103.135,-162.467 L 103.673,-162.145 L 104.24,-161.877
 L 104.83,-161.666 L 105.439,-161.513 L 106.059,-161.421 L 106.685,-161.39 z
M 0.626373,-161.421 L 1.2467,-161.513 L 1.85504,-161.666 L 2.44551,-161.877 L 3.01244,-162.145 L 3.55034,-162.467
 L 4.05405,-162.841 L 4.51872,-163.262 L 4.93988,-163.727 L 5.31346,-164.231 L 5.63586,-164.768 L 5.90399,-165.335
 L 6.11526,-165.926 L 6.26765,-166.534 L 6.35966,-167.155 L 6.39044,-167.781 L 6.35966,-168.407 L 6.26765,-169.028
 L 6.11526,-169.636 L 5.90399,-170.226 L 5.63586,-170.793 L 5.31346,-171.331 L 4.93988,-171.835 L 4.51872,-172.3
 L 4.05405,-172.721 L 3.55034,-173.094 L 3.01244,-173.417 L 2.44551,-173.685 L 1.85504,-173.896 L 1.2467,-174.049
 L 0.626373,-174.141 L 0,-174.171 L -0.626373,-174.141 L -1.2467,-174.049 L -1.85504,-173.896 L -2.44551,-173.685
 L -3.01244,-173.417 L -3.55034,-173.094 L -4.05405,-172.721 L -4.51872,-172.3 L -4.93988,-171.835 L -5.31346,-171.331
 L -5.63586,-170.793 L -5.90399,-170.226 L -6.11526,-169.636 L -6.26765,-169.028 L -6.35966,-168.407 L -6.39044,-167.781
 L -6.35966,-167.155 L -6.26765,-166.534 L -6.11526,-165.926 L -5.90399,-165.335 L -5.63586,-164.768 L -5.31346,-164.231
 L -4.93988,-163.727 L -4.51872,-163.262 L -4.05405,-162.841 L -3.55034,-162.467 L -3.01244,-162.145 L -2.44551,-161.877
 L -1.85504,-161.666 L -1.2467,-161.513 L -0.626373,-161.421 L 0,-161.39 z
M 18.4073,-161.421 L 19.0276,-161.513 L 19.6359,-161.666 L 20.2264,-161.877 L 20.7933,-162.145 L 21.3312,-162.467
 L 21.8349,-162.841 L 22.2996,-163.262 L 22.7208,-163.727 L 23.0944,-164.231 L 23.4168,-164.768 L 23.6849,-165.335
 L 23.8962,-165.926 L 24.0486,-166.534 L 24.1406,-167.155 L 24.1713,-167.781 L 24.1406,-168.407 L 24.0486,-169.028
 L 23.8962,-169.636 L 23.6849,-170.226 L 23.4168,-170.793 L 23.0944,-171.331 L 22.7208,-171.835 L 22.2996,-172.3
 L 21.8349,-172.721 L 21.3312,-173.094 L 20.7933,-173.417 L 20.2264,-173.685 L 19.6359,-173.896 L 19.0276,-174.049
 L 18.4073,-174.141 L 17.7809,-174.171 L 17.1545,-174.141 L 16.5342,-174.049 L 15.9258,-173.896 L 15.3354,-173.685
 L 14.7684,-173.417 L 14.2305,-173.094 L 13.7268,-172.721 L 13.2622,-172.3 L 12.841,-171.835 L 12.4674,-171.331
 L 12.145,-170.793 L 11.8769,-170.226 L 11.6656,-169.636 L 11.5132,-169.028 L 11.4212,-168.407 L 11.3904,-167.781
 L 11.4212,-167.155 L 11.5132,-166.534 L 11.6656,-165.926 L 11.8769,-165.335 L 12.145,-164.768 L 12.4674,-164.231
 L 12.841,-163.727 L 13.2622,-163.262 L 13.7268,-162.841 L 14.2305,-162.467 L 14.7684,-162.145 L 15.3354,-161.877
 L 15.9258,-161.666 L 16.5342,-161.513 L 17.1545,-161.421 L 17.7809,-161.39 z
M 36.1882,-161.421 L 36.8085,-161.513 L 37.4168,-161.666 L 38.0073,-161.877 L 38.5742,-162.145 L 39.1121,-162.467
 L 39.6158,-162.841 L 40.0805,-163.262 L 40.5017,-163.727 L 40.8753,-164.231 L 41.1977,-164.768 L 41.4658,-165.335
 L 41.6771,-165.926 L 41.8295,-166.534 L 41.9215,-167.155 L 41.9522,-167.781 L 41.9215,-168.407 L 41.8295,-169.028
 L 41.6771,-169.636 L 41.4658,-170.226 L 41.1977,-170.793 L 40.8753,-171.331 L 40.5017,-171.835 L 40.0805,-172.3
 L 39.6158,-172.721 L 39.1121,-173.094 L 38.5742,-173.417 L 38.0073,-173.685 L 37.4168,-173.896 L 36.8085,-174.049
 L 36.1882,-174.141 L 35.5618,-174.171 L 34.9354,-174.141 L 34.3151,-174.049 L 33.7067,-173.896 L 33.1163,-173.685
 L 32.5493,-173.417 L 32.0114,-173.094 L 31.5077,-172.721 L 31.0431,-172.3 L 30.6219,-171.835 L 30.2483,-171.331
 L 29.9259,-170.793 L 29.6578,-170.226 L 29.4465,-169.636 L 29.2941,-169.028 L 29.2021,-168.407 L 29.1713,-167.781
 L 29.2021,-167.155 L 29.2941,-166.534 L 29.4465,-165.926 L 29.6578,-165.335 L 29.9259,-164.768 L 30.2483,-164.231
 L 30.6219,-163.727 L 31.0431,-163.262 L 31.5077,-162.841 L 32.0114,-162.467 L 32.5493,-162.145 L 33.1163,-161.877
 L 33.7067,-161.666 L 34.3151,-161.513 L 34.9354,-161.421 L 35.5618,-161.39 z
M 53.9691,-161.421 L 54.5894,-161.513 L 55.1977,-161.666 L 55.7882,-161.877 L 56.3551,-162.145 L 56.893,-162.467
 L 57.3967,-162.841 L 57.8614,-163.262 L 58.2826,-163.727 L 58.6562,-164.231 L 58.9786,-164.768 L 59.2467,-165.335
 L 59.458,-165.926 L 59.6104,-166.534 L 59.7024,-167.155 L 59.7331,-167.781 L 59.7024,-168.407 L 59.6104,-169.028
 L 59.458,-169.636 L 59.2467,-170.226 L 58.9786,-170.793 L 58.6562,-171.331 L 58.2826,-171.835 L 57.8614,-172.3
 L 57.3967,-172.721 L 56.893,-173.094 L 56.3551,-173.417 L 55.7882,-173.685 L 55.1977,-173.896 L 54.5894,-174.049
 L 53.9691,-174.141 L 53.3427,-174.171 L 52.7163,-174.141 L 52.096,-174.049 L 51.4876,-173.896 L 50.8972,-173.685
 L 50.3302,-173.417 L 49.7923,-173.094 L 49.2886,-172.721 L 48.824,-172.3 L 48.4028,-171.835 L 48.0292,-171.331
 L 47.7068,-170.793 L 47.4387,-170.226 L 47.2274,-169.636 L 47.075,-169.028 L 46.983,-168.407 L 46.9522,-167.781
 L 46.983,-167.155 L 47.075,-166.534 L 47.2274,-165.926 L 47.4387,-165.335 L 47.7068,-164.768 L 48.0292,-164.231
 L 48.4028,-163.727 L 48.824,-163.262 L 49.2886,-162.841 L 49.7923,-162.467 L 50.3302,-162.145 L 50.8972,-161.877
 L 51.4876,-161.666 L 52.096,-161.513 L 52.7163,-161.421 L 53.3427,-161.39 z
M 71.75,-161.421 L 72.3703,-161.513 L 72.9786,-161.666 L 73.5691,-161.877 L 74.136,-162.145 L 74.6739,-162.467
 L 75.1776,-162.841 L 75.6423,-163.262 L 76.0635,-163.727 L 76.4371,-164.231 L 76.7595,-164.768 L 77.0276,-165.335
 L 77.2389,-165.926 L 77.3913,-166.534 L 77.4833,-167.155 L 77.514,-167.781 L 77.4833,-168.407 L 77.3913,-169.028
 L 77.2389,-169.636 L 77.0276,-170.226 L 76.7595,-170.793 L 76.4371,-171.331 L 76.0635,-171.835 L 75.6423,-172.3
 L 75.1776,-172.721 L 74.6739,-173.094 L 74.136,-173.417 L 73.5691,-173.685 L 72.9786,-173.896 L 72.3703,-174.049
 L 71.75,-174.141 L 71.1236,-174.171 L 70.4972,-174.141 L 69.8769,-174.049 L 69.2685,-173.896 L 68.6781,-173.685
 L 68.1111,-173.417 L 67.5732,-173.094 L 67.0695,-172.721 L 66.6049,-172.3 L 66.1837,-171.835 L 65.8101,-171.331
 L 65.4877,-170.793 L 65.2196,-170.226 L 65.0083,-169.636 L 64.8559,-169.028 L 64.7639,-168.407 L 64.7331,-167.781
 L 64.7639,-167.155 L 64.8559,-166.534 L 65.0083,-165.926 L 65.2196,-165.335 L 65.4877,-164.768 L 65.8101,-164.231
 L 66.1837,-163.727 L 66.6049,-163.262 L 67.0695,-162.841 L 67.5732,-162.467 L 68.1111,-162.145 L 68.6781,-161.877
 L 69.2685,-161.666 L 69.8769,-161.513 L 70.4972,-161.421 L 71.1236,-161.39 z
M 89.5309,-161.421 L 90.1512,-161.513 L 90.7595,-161.666 L 91.35,-161.877 L 91.9169,-162.145 L 92.4548,-162.467
 L 92.9585,-162.841 L 93.4232,-163.262 L 93.8444,-163.727 L 94.218,-164.231 L 94.5404,-164.768 L 94.8085,-165.335
 L 95.0198,-165.926 L 95.1721,-166.534 L 95.2642,-167.155 L 95.2949,-167.781 L 95.2642,-168.407 L 95.1721,-169.028
 L 95.0198,-169.636 L 94.8085,-170.226 L 94.5404,-170.793 L 94.218,-171.331 L 93.8444,-171.835 L 93.4232,-172.3
 L 92.9585,-172.721 L 92.4548,-173.094 L 91.9169,-173.417 L 91.35,-173.685 L 90.7595,-173.896 L 90.1512,-174.049
 L 89.5309,-174.141 L 88.9045,-174.171 L 88.2781,-174.141 L 87.6578,-174.049 L 87.0494,-173.896 L 86.459,-173.685
 L 85.892,-173.417 L 85.3541,-173.094 L 84.8504,-172.721 L 84.3858,-172.3 L 83.9646,-171.835 L 83.591,-171.331
 L 83.2686,-170.793 L 83.0005,-170.226 L 82.7892,-169.636 L 82.6368,-169.028 L 82.5448,-168.407 L 82.514,-167.781
 L 82.5448,-167.155 L 82.6368,-166.534 L 82.7892,-165.926 L 83.0005,-165.335 L 83.2686,-164.768 L 83.591,-164.231
 L 83.9646,-163.727 L 84.3858,-163.262 L 84.8504,-162.841 L 85.3541,-162.467 L 85.892,-162.145 L 86.459,-161.877
 L 87.0494,-161.666 L 87.6578,-161.513 L 88.2781,-161.421 L 88.9045,-161.39 z
M 281.809,-154.01 L 292.068,-154.01 L 292.068,-150 L 302.326,-150 L 302.326,-154.01 L 312.585,-154.01
 L 312.585,-157.133 L 316.585,-157.133 L 316.585,-164.267 L 312.585,-164.267 L 312.585,-171.4 L 261.292,-171.4
 L 261.292,-164.267 L 257.292,-164.267 L 257.292,-157.133 L 261.292,-157.133 L 261.292,-154.01 L 271.551,-154.01
 L 271.551,-150 L 281.809,-150 z
M 107.312,-143.64 L 107.932,-143.732 L 108.54,-143.885 L 109.131,-144.096 L 109.698,-144.364 L 110.236,-144.687
 L 110.739,-145.06 L 111.204,-145.481 L 111.625,-145.946 L 111.999,-146.45 L 112.321,-146.988 L 112.589,-147.554
 L 112.801,-148.145 L 112.953,-148.753 L 113.045,-149.374 L 113.076,-150 L 113.045,-150.626 L 112.953,-151.247
 L 112.801,-151.855 L 112.589,-152.446 L 112.321,-153.012 L 111.999,-153.55 L 111.625,-154.054 L 111.204,-154.519
 L 110.739,-154.94 L 110.236,-155.313 L 109.698,-155.636 L 109.131,-155.904 L 108.54,-156.115 L 107.932,-156.268
 L 107.312,-156.36 L 106.685,-156.39 L 106.059,-156.36 L 105.439,-156.268 L 104.83,-156.115 L 104.24,-155.904
 L 103.673,-155.636 L 103.135,-155.313 L 102.631,-154.94 L 102.167,-154.519 L 101.745,-154.054 L 101.372,-153.55
 L 101.05,-153.012 L 100.781,-152.446 L 100.57,-151.855 L 100.418,-151.247 L 100.326,-150.626 L 100.295,-150
 L 100.326,-149.374 L 100.418,-148.753 L 100.57,-148.145 L 100.781,-147.554 L 101.05,-146.988 L 101.372,-146.45
 L 101.745,-145.946 L 102.167,-145.481 L 102.631,-145.06 L 103.135,-144.687 L 103.673,-144.364 L 104.24,-144.096
 L 104.83,-143.885 L 105.439,-143.732 L 106.059,-143.64 L 106.685,-143.61 z
M 0.626373,-143.64 L 1.2467,-143.732 L 1.85504,-143.885 L 2.44551,-144.096 L 3.01244,-144.364 L 3.55034,-144.687
 L 4.05405,-145.06 L 4.51872,-145.481 L 4.93988,-145.946 L 5.31346,-146.45 L 5.63586,-146.988 L 5.90399,-147.554
 L 6.11526,-148.145 L 6.26765,-148.753 L 6.35966,-149.374 L 6.39044,-150 L 6.35966,-150.626 L 6.26765,-151.247
 L 6.11526,-151.855 L 5.90399,-152.446 L 5.63586,-153.012 L 5.31346,-153.55 L 4.93988,-154.054 L 4.51872,-154.519
 L 4.05405,-154.94 L 3.55034,-155.313 L 3.01244,-155.636 L 2.44551,-155.904 L 1.85504,-156.115 L 1.2467,-156.268
 L 0.626373,-156.36 L 0,-156.39 L -0.626373,-156.36 L -1.2467,-156.268 L -1.85504,-156.115 L -2.44551,-155.904
 L -3.01244,-155.636 L -3.55034,-155.313 L -4.05405,-154.94 L -4.51872,-154.519 L -4.93988,-154.054 L -5.31346,-153.55
 L -5.63586,-153.012 L -5.90399,-152.446 L -6.11526,-151.855 L -6.26765,-151.247 L -6.35966,-150.626 L -6.39044,-150
 L -6.35966,-149.374 L -6.26765,-148.753 L -6.11526,-148.145 L -5.90399,-147.554 L -5.63586,-146.988 L -5.31346,-146.45
 L -4.93988,-145.946 L -4.51872,-145.481 L -4.05405,-145.06 L -3.55034,-144.687 L -3.01244,-144.364 L -2.44551,-144.096
 L -1.85504,-143.885 L -1.2467,-143.732 L -0.626373,-143.64 L 0,-143.61 z
M 18.4073,-143.64 L 19.0276,-143.732 L 19.6359,-143.885 L 20.2264,-144.096 L 20.7933,-144.364 L 21.3312,-144.687
 L 21.8349,-145.06 L 22.2996,-145.481 L 22.7208,-145.946 L 23.0944,-146.45 L 23.4168,-146.988 L 23.6849,-147.554
 L 23.8962,-148.145 L 24.0486,-148.753 L 24.1406,-149.374 L 24.1713,-150 L 24.1406,-150.626 L 24.0486,-151.247
 L 23.8962,-151.855 L 23.6849,-152.446 L 23.4168,-153.012 L 23.0944,-153.55 L 22.7208,-154.054 L 22.2996,-154.519
 L 21.8349,-154.94 L 21.3312,-155.313 L 20.7933,-155.636 L 20.2264,-155.904 L 19.6359,-156.115 L 19.0276,-156.268
 L 18.4073,-156.36 L 17.7809,-156.39 L 17.1545,-156.36 L 16.5342,-156.268 L 15.9258,-156.115 L 15.3354,-155.904
 L 14.7684,-155.636 L 14.2305,-155.313 L 13.7268,-154.94 L 13.2622,-154.519 L 12.841,-154.054 L 12.4674,-153.55
 L 12.145,-153.012 L 11.8769,-152.446 L 11.6656,-151.855 L 11.5132,-151.247 L 11.4212,-150.626 L 11.3904,-150
 L 11.4212,-149.374 L 11.5132,-148.753 L 11.6656,-148.145 L 11.8769,-147.554 L 12.145,-146.988 L 12.4674,-146.45
 L 12.841,-145.946 L 13.2622,-145.481 L 13.7268,-145.06 L 14.2305,-144.687 L 14.7684,-144.364 L 15.3354,-144.096
 L 15.9258,-143.885 L 16.5342,-143.732 L 17.1545,-143.64 L 17.7809,-143.61 z
M 36.1882,-143.64 L 36.8085,-143.732 L 37.4168,-143.885 L 38.0073,-144.096 L 38.5742,-144.364 L 39.1121,-144.687
 L 39.6158,-145.06 L 40.0805,-145.481 L 40.5017,-145.946 L 40.8753,-146.45 L 41.1977,-146.988 L 41.4658,-147.554
 L 41.6771,-148.145 L 41.8295,-148.753 L 41.9215,-149.374 L 41.9522,-150 L 41.9215,-150.626 L 41.8295,-151.247
 L 41.6771,-151.855 L 41.4658,-152.446 L 41.1977,-153.012 L 40.8753,-153.55 L 40.5017,-154.054 L 40.0805,-154.519
 L 39.6158,-154.94 L 39.1121,-155.313 L 38.5742,-155.636 L 38.0073,-155.904 L 37.4168,-156.115 L 36.8085,-156.268
 L 36.1882,-156.36 L 35.5618,-156.39 L 34.9354,-156.36 L 34.3151,-156.268 L 33.7067,-156.115 L 33.1163,-155.904
 L 32.5493,-155.636 L 32.0114,-155.313 L 31.5077,-154.94 L 31.0431,-154.519 L 30.6219,-154.054 L 30.2483,-153.55
 L 29.9259,-153.012 L 29.6578,-152.446 L 29.4465,-151.855 L 29.2941,-151.247 L 29.2021,-150.626 L 29.1713,-150
 L 29.2021,-149.374 L 29.2941,-148.753 L 29.4465,-148.145 L 29.6578,-147.554 L 29.9259,-146.988 L 30.2483,-146.45
 L 30.6219,-145.946 L 31.0431,-145.481 L 31.5077,-145.06 L 32.0114,-144.687 L 32.5493,-144.364 L 33.1163,-144.096
 L 33.7067,-143.885 L 34.3151,-143.732 L 34.9354,-143.64 L 35.5618,-143.61 z
M 53.9691,-143.64 L 54.5894,-143.732 L 55.1977,-143.885 L 55.7882,-144.096 L 56.3551,-144.364 L 56.893,-144.687
 L 57.3967,-145.06 L 57.8614,-145.481 L 58.2826,-145.946 L 58.6562,-146.45 L 58.9786,-146.988 L 59.2467,-147.554
 L 59.458,-148.145 L 59.6104,-148.753 L 59.7024,-149.374 L 59.7331,-150 L 59.7024,-150.626 L 59.6104,-151.247
 L 59.458,-151.855 L 59.2467,-152.446 L 58.9786,-153.012 L 58.6562,-153.55 L 58.2826,-154.054 L 57.8614,-154.519
 L 57.3967,-154.94 L 56.893,-155.313 L 56.3551,-155.636 L 55.7882,-155.904 L 55.1977,-156.115 L 54.5894,-156.268
 L 53.9691,-156.36 L 53.3427,-156.39 L 52.7163,-156.36 L 52.096,-156.268 L 51.4876,-156.115 L 50.8972,-155.904
 L 50.3302,-155.636 L 49.7923,-155.313 L 49.2886,-154.94 L 48.824,-154.519 L 48.4028,-154.054 L 48.0292,-153.55
 L 47.7068,-153.012 L 47.4387,-152.446 L 47.2274,-151.855 L 47.075,-151.247 L 46.983,-150.626 L 46.9522,-150
 L 46.983,-149.374 L 47.075,-148.753 L 47.2274,-148.145 L 47.4387,-147.554 L 47.7068,-146.988 L 48.0292,-146.45
 L 48.4028,-145.946 L 48.824,-145.481 L 49.2886,-145.06 L 49.7923,-144.687 L 50.3302,-144.364 L 50.8972,-144.096
 L 51.4876,-143.885 L 52.096,-143.732 L 52.7163,-143.64 L 53.3427,-143.61 z
M 71.75,-143.64 L 72.3703,-143.732 L 72.9786,-143.885 L 73.5691,-144.096 L 74.136,-144.364 L 74.6739,-144.687
 L 75.1776,-145.06 L 75.6423,-145.481 L 76.0635,-145.946 L 76.4371,-146.45 L 76.7595,-146.988 L 77.0276,-147.554
 L 77.2389,-148.145 L 77.3913,-148.753 L 77.4833,-149.374 L 77.514,-150 L 77.4833,-150.626 L 77.3913,-151.247
 L 77.2389,-151.855 L 77.0276,-152.446 L 76.7595,-153.012 L 76.4371,-153.55 L 76.0635,-154.054 L 75.6423,-154.519
 L 75.1776,-154.94 L 74.6739,-155.313 L 74.136,-155.636 L 73.5691,-155.904 L 72.9786,-156.115 L 72.3703,-156.268
 L 71.75,-156.36 L 71.1236,-156.39 L 70.4972,-156.36 L 69.8769,-156.268 L 69.2685,-156.115 L 68.6781,-155.904
 L 68.1111,-155.636 L 67.5732,-155.313 L 67.0695,-154.94 L 66.6049,-154.519 L 66.1837,-154.054 L 65.8101,-153.55
 L 65.4877,-153.012 L 65.2196,-152.446 L 65.0083,-151.855 L 64.8559,-151.247 L 64.7639,-150.626 L 64.7331,-150
 L 64.7639,-149.374 L 64.8559,-148.753 L 65.0083,-148.145 L 65.2196,-147.554 L 65.4877,-146.988 L 65.8101,-146.45
 L 66.1837,-145.946 L 66.6049,-145.481 L 67.0695,-145.06 L 67.5732,-144.687 L 68.1111,-144.364 L 68.6781,-144.096
 L 69.2685,-143.885 L 69.8769,-143.732 L 70.4972,-143.64 L 71.1236,-143.61 z
M 89.5309,-143.64 L 90.1512,-143.732 L 90.7595,-143.885 L 91.35,-144.096 L 91.9169,-144.364 L 92.4548,-144.687
 L 92.9585,-145.06 L 93.4232,-145.481 L 93.8444,-145.946 L 94.218,-146.45 L 94.5404,-146.988 L 94.8085,-147.554
 L 95.0198,-148.145 L 95.1721,-148.753 L 95.2642,-149.374 L 95.2949,-150 L 95.2642,-150.626 L 95.1721,-151.247
 L 95.0198,-151.855 L 94.8085,-152.446 L 94.5404,-153.012 L 94.218,-153.55 L 93.8444,-154.054 L 93.4232,-154.519
 L 92.9585,-154.94 L 92.4548,-155.313 L 91.9169,-155.636 L 91.35,-155.904 L 90.7595,-156.115 L 90.1512,-156.268
 L 89.5309,-156.36 L 88.9045,-156.39 L 88.2781,-156.36 L 87.6578,-156.268 L 87.0494,-156.115 L 86.459,-155.904
 L 85.892,-155.636 L 85.3541,-155.313 L 84.8504,-154.94 L 84.3858,-154.519 L 83.9646,-154.054 L 83.591,-153.55
 L 83.2686,-153.012 L 83.0005,-152.446 L 82.7892,-151.855 L 82.6368,-151.247 L 82.5448,-150.626 L 82.514,-150
 L 82.5448,-149.374 L 82.6368,-148.753 L 82.7892,-148.145 L 83.0005,-147.554 L 83.2686,-146.988 L 83.591,-146.45
 L 83.9646,-145.946 L 84.3858,-145.481 L 84.8504,-145.06 L 85.3541,-144.687 L 85.892,-144.364 L 86.459,-144.096
 L 87.0494,-143.885 L 87.6578,-143.732 L 88.2781,-143.64 L 88.9045,-143.61 z
M 23.6236,-1.71597 L 36.5824,-1.71597 L 36.5824,2.29401 L 49.5412,2.29401 L 49.5412,-1.71597 L 62.5,-1.71597
 L 62.5,2.29401 L 75.4588,2.29401 L 75.4588,-1.71597 L 84.4076,-1.71597 L 84.4076,-3.49564 L 88.4176,-3.49564
 L 88.4176,-9.28528 L 84.4076,-9.28528 L 84.4076,-15.0749 L 88.4176,-15.0749 L 88.4176,-19.0849 L 100.478,-19.0849
 L 100.478,-15.0749 L 112.537,-15.0749 L 112.537,-19.0849 L 124.597,-19.0849 L 124.597,-15.0749 L 128.607,-15.0749
 L 128.607,-9.28525 L 124.597,-9.28525 L 124.597,-3.49561 L 128.607,-3.49561 L 128.607,-1.71597 L 134.219,-1.71597
 L 134.219,2.29401 L 143.841,2.29401 L 143.841,-1.71597 L 153.463,-1.71597 L 153.463,2.29401 L 163.084,2.29401
 L 163.084,-1.71597 L 168.696,-1.71597 L 168.696,-11.4045 L 172.706,-11.4045 L 172.706,-25.103 L 168.696,-25.103
 L 168.696,-38.8015 L 172.706,-38.8015 L 172.706,-52.5 L 168.696,-52.5 L 168.696,-62.1885 L 163.084,-62.1885
 L 163.084,-66.1985 L 153.463,-66.1985 L 153.463,-62.1885 L 143.841,-62.1885 L 143.841,-66.1985 L 134.219,-66.1985
 L 134.219,-62.1885 L 128.607,-62.1885 L 128.607,-60.4088 L 124.597,-60.4088 L 124.597,-54.6192 L 128.607,-54.6192
 L 128.607,-48.8296 L 124.597,-48.8296 L 124.597,-44.8196 L 112.537,-44.8196 L 112.537,-48.8296 L 100.478,-48.8296
 L 100.478,-44.8196 L 88.4176,-44.8196 L 88.4176,-48.8296 L 84.4076,-48.8296 L 84.4076,-54.6192 L 88.4176,-54.6192
 L 88.4176,-60.4089 L 84.4076,-60.4089 L 84.4076,-62.1885 L 75.4588,-62.1885 L 75.4588,-66.1985 L 62.5,-66.1985
 L 62.5,-62.1885 L 49.5412,-62.1885 L 49.5412,-66.1985 L 36.5824,-66.1985 L 36.5824,-62.1885 L 23.6236,-62.1885
 L 23.6236,-66.1985 L 10.6648,-66.1985 L 10.6648,-62.1885 L -2.29401,-62.1885 L -2.29399,-1.71597 L 10.6648,-1.71597
 L 10.6648,2.29401 L 23.6236,2.29401 z
M 283.418,-15.0749 L 319.597,-15.0749 L 319.597,2.29401 L 367.706,2.29401 L 367.706,-66.1985 L 319.597,-66.1985
 L 319.597,-48.8296 L 283.418,-48.8296 L 283.418,-66.1985 L 192.706,-66.1985 L 192.706,2.29401 L 283.418,2.29401
 z
M 126.501,92 L 132.291,92 L 132.291,96 L 138.081,96 L 138.081,91.99 L 138.071,91.99
 L 138.071,84.6567 L 142.081,84.6567 L 142.081,77.3333 L 138.071,77.3333 L 138.071,70 L 124.722,70
 L 124.722,77.3333 L 120.712,77.3333 L 120.712,84.6567 L 124.722,84.6567 L 124.722,91.99 L 124.712,91.99
 L 124.712,96 L 126.501,96 z
M 12.9588,92 L 25.9176,92 L 25.9176,96 L 38.8764,96 L 38.8764,92 L 51.8352,92
 L 51.8352,96 L 64.794,96 L 64.794,92 L 77.7528,92 L 77.7528,96 L 90.7116,96
 L 90.7116,84.6667 L 86.7016,84.6667 L 86.7016,77.3233 L 90.7116,77.3233 L 90.7116,70 L 0,70
 L 0,96 L 12.9588,96 z
M 12.0599,134 L 24.1198,134 L 24.1198,138 L 36.1798,138 L 36.1798,134 L 40.1798,134
 L 40.1798,126.667 L 36.1698,126.667 L 36.1698,119.323 L 40.1798,119.323 L 40.1798,112 L -4,112
 L -4,119.323 L 0.00999451,119.323 L 0.00999451,126.667 L -4,126.667 L -4,134 L 0,134
 L 0,138 L 12.0599,138 z
M 126.501,134 L 132.291,134 L 132.291,138 L 134.081,138 L 134.081,133.99 L 134.071,133.99
 L 134.071,126.657 L 138.081,126.657 L 138.081,119.333 L 134.071,119.333 L 134.071,112 L 120.722,112
 L 120.722,119.333 L 116.712,119.333 L 116.712,126.657 L 120.722,126.657 L 120.722,133.99 L 120.712,133.99
 L 120.712,138 L 126.501,138 z
M 134.41,176 L 148.109,176 L 148.109,180 L 161.807,180 L 161.807,176 L 175.506,176
 L 175.506,180 L 185.204,180 L 185.204,175.99 L 185.194,175.99 L 185.194,168.657 L 189.204,168.657
 L 189.204,161.333 L 185.194,161.333 L 185.194,154 L 124.722,154 L 124.722,161.333 L 120.712,161.333
 L 120.712,168.657 L 124.722,168.657 L 124.722,175.99 L 124.712,175.99 L 124.712,180 L 134.41,180
 z
M 9.62172,176 L 19.2434,176 L 19.2434,180 L 28.8652,180 L 28.8652,176 L 38.4869,176
 L 38.4869,180 L 48.1086,180 L 48.1086,168.667 L 44.0986,168.667 L 44.0986,161.323 L 48.1086,161.323
 L 48.1086,154 L 0,154 L 0,161.323 L 4.00999,161.323 L 4.00999,168.667 L 0,168.667
 L 0,180 L 9.62172,180 z
M 126.501,218 L 132.291,218 L 132.291,222 L 138.081,222 L 138.081,217.99 L 138.071,217.99
 L 138.071,210.657 L 142.081,210.657 L 142.081,203.333 L 138.071,203.333 L 138.071,196 L 124.722,196
 L 124.722,203.333 L 120.712,203.333 L 120.712,210.657 L 124.722,210.657 L 124.722,217.99 L 124.712,217.99
 L 124.712,222 L 126.501,222 z
M 9.62172,218 L 19.2434,218 L 19.2434,222 L 28.8652,222 L 28.8652,218 L 38.4869,218
 L 38.4869,222 L 48.1086,222 L 48.1086,210.667 L 44.0986,210.667 L 44.0986,203.323 L 48.1086,203.323
 L 48.1086,196 L 0,196 L 0,203.323 L 4.00999,203.323 L 4.00999,210.667 L 0,210.667
 L 0,222 L 9.62172,222 z
M 126.501,260 L 132.291,260 L 132.291,264 L 134.081,264 L 134.081,259.99 L 134.071,259.99
 L 134.071,252.657 L 138.081,252.657 L 138.081,245.333 L 134.071,245.333 L 134.071,238 L 120.722,238
 L 120.722,245.333 L 116.712,245.333 L 116.712,252.657 L 120.722,252.657 L 120.722,259.99 L 120.712,259.99
 L 120.712,264 L 126.501,264 z
M 12.0599,260 L 24.1198,260 L 24.1198,264 L 36.1798,264 L 36.1798,260 L 40.1798,260
 L 40.1798,252.667 L 36.1698,252.667 L 36.1698,245.323 L 40.1798,245.323 L 40.1798,238 L -4,238
 L -4,245.323 L 0.00999451,245.323 L 0.00999451,252.667 L -4,252.667 L -4,260 L 0,260
 L 0,264 L 12.0599,264 z
M 12.9588,302 L 25.9176,302 L 25.9176,306 L 38.8764,306 L 38.8764,302 L 51.8352,302
 L 51.8352,306 L 64.794,306 L 64.794,302 L 77.7528,302 L 77.7528,306 L 90.7116,306
 L 90.7116,280 L 0,280 L 0,287.323 L 4.00999,287.323 L 4.00999,294.667 L 0,294.667
 L 0,306 L 12.9588,306 z
" stroke="black" fill="lightgray" stroke-width="0.5"/>
</svg>
